<svg xmlns="http://www.w3.org/2000/svg" viewBox="0 0 447.68 98.22"><defs><style>.cls-1,.cls-2{fill:none;stroke:#fd7447;stroke-miterlimit:10;stroke-width:3px;}.cls-2{stroke-linecap:round;}.cls-3{fill:#fd7447;}</style></defs><title>Asset 1</title><g id="Layer_2" data-name="Layer 2"><g id="Layer_1-2" data-name="Layer 1"><path class="cls-1" d="M40,5.74,2,69.14a3.72,3.72,0,0,0,1.26,5.09L39.95,96.47,77.09,74.54a3.72,3.72,0,0,0,1.29-5.12Z"/><line class="cls-2" x1="48.93" y1="1.5" x2="48.92" y2="90.48"/><line class="cls-1" x1="57.9" y1="35.4" x2="57.88" y2="85.89"/><polyline class="cls-1" points="66.84 50.26 66.84 50.28 66.84 80.59"/><polyline class="cls-1" points="73.95 65.15 73.95 62.06 73.95 76.39"/><line class="cls-1" x1="22.44" y1="35.4" x2="22.46" y2="85.89"/><polyline class="cls-1" points="13.49 50.26 13.49 50.28 13.49 80.59"/><polyline class="cls-1" points="6.38 65.15 6.38 62.06 6.38 76.39"/><line class="cls-2" x1="30.99" y1="1.5" x2="30.98" y2="90.91"/><line class="cls-1" x1="30.99" y1="24.25" x2="48.92" y2="24.25"/><line class="cls-1" x1="30.99" y1="45.06" x2="48.92" y2="45.06"/><line class="cls-1" x1="30.99" y1="66.62" x2="48.92" y2="66.62"/><path class="cls-3" d="M127.87,65H111.5V32.86h15.12v4.51H116.11v8.11h6.67V49.9h-6.67V60.5h11.76Z"/><path class="cls-3" d="M148.51,37.18h-5.86V65H138V37.18h-5.86V32.86h16.37Z"/><path class="cls-3" d="M170.2,65h-4.66V50.47h-8.78V65h-4.61V32.86h4.61V46h8.78V32.86h4.66Z"/><path class="cls-3" d="M203,56a10.34,10.34,0,0,1-2.35,6.7,7.88,7.88,0,0,1-6.48,2.9,8.24,8.24,0,0,1-6.41-3,10.31,10.31,0,0,1-2.62-7.08h4.42a6,6,0,0,0,1.27,4,4.07,4.07,0,0,0,3.24,1.49,4.17,4.17,0,0,0,3.17-1.46,4.73,4.73,0,0,0,1.3-3.43,6.59,6.59,0,0,0-1.18-3.34,13.49,13.49,0,0,0-4.15-3.67,18.37,18.37,0,0,1-5-4.39,7.11,7.11,0,0,1-1.58-4.1,8.14,8.14,0,0,1,2.21-5.88,7.67,7.67,0,0,1,5.76-2.47,8.2,8.2,0,0,1,8.45,8.3h-4.7a3.54,3.54,0,0,0-1.18-2.93,3.48,3.48,0,0,0-2.57-1,3.22,3.22,0,0,0-2.45,1.18,3.85,3.85,0,0,0-.82,2.62,3.28,3.28,0,0,0,.86,2,21.4,21.4,0,0,0,3.55,2.88,20.57,20.57,0,0,1,5.54,5.09A9.86,9.86,0,0,1,203,56Z"/><path class="cls-3" d="M226.46,65H221.8l-2.26-8.78h-6.86L210.52,65h-4.61l8-32.16h4.51Zm-8-13.3-2.35-9.26-2.26,9.26Z"/><path class="cls-3" d="M247.48,65H243l-9-20.45V65h-4.61V32.86H234L242.83,53V32.86h4.66Z"/><path class="cls-3" d="M279.54,37.37H267.78v8.11h6.43V49.9h-6.43V65h-4.61V32.86h16.37Z"/><path class="cls-3" d="M302.73,65H298L293.7,49.9h-4.42V65h-4.61V32.86h9.6a8.24,8.24,0,0,1,6.12,2.35,8.49,8.49,0,0,1,2.33,6.24,9.49,9.49,0,0,1-1.27,4.78,6.39,6.39,0,0,1-3.38,3ZM298.22,41.3a3.72,3.72,0,0,0-1.15-2.88,4.3,4.3,0,0,0-3-1.06h-4.75v7.92H294a4.15,4.15,0,0,0,3-1.15A3.74,3.74,0,0,0,298.22,41.3Z"/><path class="cls-3" d="M326.53,65h-4.66l-2.26-8.78h-6.86L310.6,65H306l8-32.16h4.51Zm-8-13.3-2.35-9.26-2.26,9.26Z"/><path class="cls-3" d="M347.56,65h-4.46l-9-20.45V65h-4.61V32.86h4.61L342.9,53V32.86h4.66Z"/><path class="cls-3" d="M351.64,49q0-9.36,2.81-13a8.34,8.34,0,0,1,6.79-3.65A8,8,0,0,1,367,34.61a8.45,8.45,0,0,1,2.54,5.83h-4.66a3.56,3.56,0,0,0-1.1-2.62,3.85,3.85,0,0,0-2.74-1q-1.92,0-3.36,2.33T356.29,49q0,7.82,1.46,10t3.34,2.11a3.85,3.85,0,0,0,2.74-1,3.56,3.56,0,0,0,1.1-2.62h4.66A8.44,8.44,0,0,1,367,63.36a8,8,0,0,1-5.81,2.28A8.34,8.34,0,0,1,354.45,62Q351.64,58.35,351.64,49Z"/><path class="cls-3" d="M379.67,65h-4.51V32.86h4.51Z"/><path class="cls-3" d="M403.14,56a10.34,10.34,0,0,1-2.35,6.7,7.88,7.88,0,0,1-6.48,2.9,8.24,8.24,0,0,1-6.41-3,10.31,10.31,0,0,1-2.62-7.08h4.42a6,6,0,0,0,1.27,4,4.07,4.07,0,0,0,3.24,1.49,4.17,4.17,0,0,0,3.17-1.46,4.73,4.73,0,0,0,1.3-3.43,6.59,6.59,0,0,0-1.18-3.34,13.49,13.49,0,0,0-4.15-3.67,18.37,18.37,0,0,1-5-4.39,7.11,7.11,0,0,1-1.58-4.1,8.14,8.14,0,0,1,2.21-5.88,7.67,7.67,0,0,1,5.76-2.47,8.2,8.2,0,0,1,8.45,8.3h-4.7a3.54,3.54,0,0,0-1.18-2.93,3.48,3.48,0,0,0-2.57-1,3.22,3.22,0,0,0-2.45,1.18,3.85,3.85,0,0,0-.82,2.62,3.28,3.28,0,0,0,.86,2,21.4,21.4,0,0,0,3.55,2.88,20.57,20.57,0,0,1,5.54,5.09A9.86,9.86,0,0,1,403.14,56Z"/><path class="cls-3" d="M407.08,49q0-9.36,2.81-13a8.34,8.34,0,0,1,6.79-3.65,8,8,0,0,1,5.81,2.28A8.45,8.45,0,0,1,425,40.44h-4.66a3.56,3.56,0,0,0-1.1-2.62,3.85,3.85,0,0,0-2.74-1q-1.92,0-3.36,2.33T411.73,49q0,7.82,1.46,10t3.34,2.11a3.85,3.85,0,0,0,2.74-1,3.56,3.56,0,0,0,1.1-2.62H425a8.44,8.44,0,0,1-2.54,5.83,8,8,0,0,1-5.81,2.28A8.34,8.34,0,0,1,409.88,62Q407.08,58.35,407.08,49Z"/><path class="cls-3" d="M438.13,65.59a7.71,7.71,0,0,1-7.25-4.15q-2.3-4.15-2.3-12.5t2.3-12.43a8.38,8.38,0,0,1,14.5,0q2.31,4.17,2.3,12.43t-2.3,12.5A7.71,7.71,0,0,1,438.13,65.59Zm0-4.51q2.64,0,3.79-2.93t1.15-9.31q0-6.24-1.15-9.12t-3.79-2.88q-2.64,0-3.79,2.88t-1.15,9.12q0,6.34,1.15,9.31T438.13,61.08Z"/></g></g></svg>