<svg id="Layer_1" xmlns="http://www.w3.org/2000/svg" viewBox="0 0 118.4 56"><style>.st0{fill:#fff}</style><path class="st0" d="M0 0h118.4v56H0z"/><path d="M32 4h50.9v50.6H32z"/><path class="st0" d="M84 55.2H30.8V2.8H84v52.4zM32 54h50.9V4H32v50z"/><path class="st0" d="M45.6 30.2c0 5.4.1 7.7.8 8.4.6.6 1.6.8 4.5.8 2 0 3.6 0 4.5-1.1.5-.6.8-1.5 1-2.2 0-.3.1-.5.3-.5.2 0 .2.1.2.5s-.2 2.6-.5 3.7c-.2.8-.4 1-2.4 1-2.7 0-4.6-.1-6.2-.1-1.6-.1-2.7-.1-3.8-.1h-1.5c-.7 0-1.6.1-2.1.1-.4 0-.6-.1-.6-.3 0-.1.1-.2.3-.2.3 0 .8-.1 1.1-.1.7-.1.9-1 1.1-2 .2-1.5.2-4.4.2-8v-6.4c0-5.7 0-6.8-.1-7.9-.1-1.3-.4-1.8-1.6-2.1-.3-.1-.9-.1-1.3-.1-.1 0-.3-.1-.3-.2 0-.2.2-.3.6-.3 1.7 0 4 .1 4.2.1s2.9-.1 4-.1c.4 0 .6.1.6.3 0 .1-.1.2-.3.2-.2 0-.8 0-1.2.1-1.1.2-1.4.8-1.5 2.1-.1 1.2-.1 2.2-.1 7.9v6.5zm23.6 9.6h1.4c.5 0 .7-.2.8-.2s.1.1.1.2-.1.5-.1.7c-.1.2-.1.2-.4.2h-1.7v2.8c0 .6.2.9.8 1 .2 0 .6.1.8.1.1 0 .1.1.1.1 0 .1-.1.1-.3.1h-4.6c-.2 0-.3 0-.3-.1s0-.1.1-.1h.9c.6-.1.7-.5.8-1.1.1-.8 0-2.2 0-2.8H62c-.2 0-.4 0-.4-.2 0-.1.1-.3.1-.4.1-.1 6.2-8.3 6.8-9.1.1-.2.2-.3.4-.3s.2.1.2.3v2.8l.1 6zm-1.5-6.6c-.3.5-4.5 6.1-4.8 6.6h4.8v-6.6z"/><ellipse class="st0" cx="66" cy="15.6" rx="2.6" ry="2.6"/></svg>